<svg xmlns="http://www.w3.org/2000/svg" viewBox="0 0 168 44" fill="none">
<g><circle cx="22" cy="22" r="14" fill="#25D366"></circle><path d="M22 12a10 10 0 0 0-8.5 15.2L12 34l6.9-1.4A10 10 0 1 0 22 12z" fill="#25D366"></path><path d="M17 17c-.4 0-1 .2-1.4.9-.5.8-1.2 2.3.4 4.6 1.6 2.3 3.6 3.7 5.6 4.4 2 .7 2.9.2 3.5-.3.5-.5.7-1.4.5-1.8-.2-.3-.7-.5-1.4-.9-.7-.3-1.5-.7-1.8-.2-.3.5-.6.9-.9.9-.3 0-1.3-.5-2.3-1.5s-1.4-1.9-1.5-2.2c-.1-.4.2-.6.4-.9.3-.3.4-.6.5-.9.1-.3 0-.6-.1-.9-.1-.3-.7-1.7-1-2.3-.2-.5-.5-.5-.9-.5z" fill="#fff"></path></g>
<text x="42" y="28" font-family="Inter, &#39;Helvetica Neue&#39;, Arial, sans-serif" font-size="21" font-weight="700" letter-spacing="-0.5" fill="#EDE7DA">WhatsApp</text>
</svg>