<svg xmlns="http://www.w3.org/2000/svg" viewBox="0 0 168 44" fill="none">
<g><path d="M20 11c-2.5 0-4 2.5-4.6 4.2L12 16.5c-.6.2-.7.3-.8 1L9 33l14 3 3-19c-.2-2.3-1.7-6-6-6z" fill="#95BF47"></path><path d="M26 14l-1.3 20L9 33 26 14z" fill="#5E8E3E" opacity=".55"></path><path d="M22 20c-1-.5-1.6-.6-2.3-.5-1.4.2-1.5 1.1-1.4 1.5.2 1 2.6 1.2 3 3 .3 1.4-.6 2.6-2.2 2.7-1.4 0-2.3-.6-2.3-.6" stroke="#fff" stroke-width="1.6" fill="none"></path></g>
<text x="42" y="28" font-family="Inter, &#39;Helvetica Neue&#39;, Arial, sans-serif" font-size="21" font-weight="700" letter-spacing="-0.5" fill="#EDE7DA">Shopify</text>
</svg>