<svg xmlns="http://www.w3.org/2000/svg" viewBox="0 0 168 44" fill="none">
<rect x="8" y="10" width="26" height="24" rx="5" fill="#635BFF"></rect><path d="M18 20c0-.8.9-1.1 1.8-1.1 1.3 0 2.9.5 4.2 1.1v-4c-1.3-.5-2.7-.7-4.2-.7-3.4 0-5.9 1.8-5.9 4.9 0 4.7 6.2 3.9 6.2 5.9 0 .9-.8 1.2-1.9 1.2-1.4 0-3.3-.6-4.7-1.4v4.1c1.6.7 3.2 1 4.7 1 3.5 0 6-1.7 6-4.9 0-5-6.3-4-6.3-6z" fill="#fff"></path>
<text x="42" y="28" font-family="Inter, &#39;Helvetica Neue&#39;, Arial, sans-serif" font-size="22" font-weight="800" letter-spacing="-1" fill="#EDE7DA">stripe</text>
</svg>